<?xml version="1.0" encoding="UTF-8" standalone="no"?>
<svg
   xmlns:dc="http://purl.org/dc/elements/1.1/"
   xmlns:cc="http://web.resource.org/cc/"
   xmlns:rdf="http://www.w3.org/1999/02/22-rdf-syntax-ns#"
   xmlns:svg="http://www.w3.org/2000/svg"
   xmlns="http://www.w3.org/2000/svg"
   xmlns:xlink="http://www.w3.org/1999/xlink"
   xmlns:sodipodi="http://sodipodi.sourceforge.net/DTD/sodipodi-0.dtd"
   xmlns:inkscape="http://www.inkscape.org/namespaces/inkscape"
   width="202.01819"
   height="227.69504"
   id="svg2"
   sodipodi:version="0.32"
   inkscape:version="0.44+devel"
   sodipodi:docname="Sacred-Chao.svg"
   inkscape:output_extension="org.inkscape.output.svg.inkscape"
   sodipodi:docbase="C:\Documents and Settings\James\デスクトップ"
   version="1.0"
   sodipodi:modified="true">
  <metadata
     id="metadata51">
    <rdf:RDF>
      <cc:Work
         rdf:about="">
        <dc:format>image/svg+xml</dc:format>
        <dc:type
           rdf:resource="http://purl.org/dc/dcmitype/StillImage" />
      </cc:Work>
    </rdf:RDF>
  </metadata>
  <defs
     id="defs49">
    <linearGradient
       id="linearGradient3196"
       inkscape:collect="always">
      <stop
         id="stop3198"
         offset="0"
         style="stop-color:#ec1a00;stop-opacity:1" />
      <stop
         id="stop3200"
         offset="1"
         style="stop-color:#2fc500;stop-opacity:1" />
    </linearGradient>
    <linearGradient
       id="linearGradient3172"
       inkscape:collect="always">
      <stop
         id="stop3174"
         offset="0"
         style="stop-color:#ffbcb3;stop-opacity:1" />
      <stop
         id="stop3176"
         offset="1"
         style="stop-color:#c8ffbf;stop-opacity:1" />
    </linearGradient>
    <desc
       id="desc2163">Golden Apple of Eris</desc>
    <desc
       id="desc2179">Golden Apple of Eris</desc>
    <linearGradient
       inkscape:collect="always"
       xlink:href="#linearGradient3172"
       id="linearGradient3170"
       x1="597.72278"
       y1="159.90518"
       x2="737.1662"
       y2="160.79849"
       gradientUnits="userSpaceOnUse" />
    <linearGradient
       inkscape:collect="always"
       xlink:href="#linearGradient3196"
       id="linearGradient3186"
       x1="563.89277"
       y1="171.93206"
       x2="765.91096"
       y2="171.93206"
       gradientUnits="userSpaceOnUse" />
    <linearGradient
       inkscape:collect="always"
       xlink:href="#linearGradient3172"
       id="linearGradient3212"
       gradientUnits="userSpaceOnUse"
       x1="597.72278"
       y1="159.90518"
       x2="737.1662"
       y2="160.79849"
       gradientTransform="matrix(1.0891696,0,0,1.0891696,-328.26704,156.42425)" />
    <linearGradient
       inkscape:collect="always"
       xlink:href="#linearGradient3196"
       id="linearGradient3214"
       gradientUnits="userSpaceOnUse"
       x1="563.89277"
       y1="171.93206"
       x2="765.91096"
       y2="171.93206"
       gradientTransform="matrix(1.0891696,0,0,1.0891696,-328.26704,156.42425)" />
    <desc
       id="desc2171">Golden Apple of Eris</desc>
    <desc
       id="desc16">Golden Apple of Eris</desc>
    <linearGradient
       inkscape:collect="always"
       xlink:href="#linearGradient3172"
       id="linearGradient3244"
       gradientUnits="userSpaceOnUse"
       gradientTransform="matrix(1.0891696,0,0,1.0891696,-328.26704,156.42425)"
       x1="597.72278"
       y1="159.90518"
       x2="737.1662"
       y2="160.79849" />
    <linearGradient
       inkscape:collect="always"
       xlink:href="#linearGradient3196"
       id="linearGradient3246"
       gradientUnits="userSpaceOnUse"
       gradientTransform="matrix(1.0891696,0,0,1.0891696,-328.26704,156.42425)"
       x1="563.89277"
       y1="171.93206"
       x2="765.91096"
       y2="171.93206" />
  </defs>
  <sodipodi:namedview
     inkscape:window-height="602"
     inkscape:window-width="742"
     inkscape:pageshadow="2"
     inkscape:pageopacity="0.0"
     guidetolerance="10.0"
     gridtolerance="10.0"
     objecttolerance="10.0"
     borderopacity="1.0"
     bordercolor="#666666"
     pagecolor="#ffffff"
     id="base"
     inkscape:zoom="0.63468013"
     inkscape:cx="306.60062"
     inkscape:cy="-44.350529"
     inkscape:window-x="168"
     inkscape:window-y="182"
     inkscape:current-layer="svg2" />
  <desc
     id="desc4">Sacred Chao of Discordianism, by Trent Buck, modified by AnonMoos (public domain)</desc>
  <g
     id="g3230"
     transform="matrix(10.380551,0,0,-10.380551,-2721.149,3683.0663)">
    <path
       transform="matrix(0.1,0,0,-0.1,233.31518,337.08959)"
       style="fill:#ffe6bf;stroke:#ecc600;stroke-width:15.79699993;stroke-linejoin:round"
       id="path18"
       d="M 593.52818,11.58159 C 559.12718,42.80459 574.60718,121.29159 636.46118,141.57559 C 664.64118,150.66159 699.88918,148.47059 725.75618,128.95659 C 746.97618,113.23659 764.61518,90.25559 761.43718,43.70259 C 759.63318,17.53159 720.51218,-29.45641 669.17618,-0.65241 C 655.04318,-7.86741 627.99918,-20.17841 593.52918,11.58159 L 593.52818,11.58159 z " />
    <path
       transform="matrix(0.1,0,0,-0.1,233.31518,337.08959)"
       style="fill:#ffe6bf;stroke:#ecc600;stroke-width:9.87312031"
       id="path20"
       d="M 672.73118,-25.38241 C 693.95118,-25.00541 718.21718,-32.36341 719.30118,-68.02741 C 709.50018,-69.00741 681.03418,-63.73741 679.02018,-37.04641 C 677.57818,-17.47041 670.14318,-27.18541 667.09418,-41.59641 C 662.46218,-40.16841 665.84218,-41.34941 659.70518,-39.00141 C 674.88718,-14.41641 667.65118,-1.65741 670.56818,-1.87941 C 673.82618,-2.12841 672.81718,-13.49641 672.73218,-25.38441 L 672.73118,-25.38241 z " />
  </g>
  <g
     id="g3240"
     transform="translate(-319.88919,374.56503)">
    <path
       style="fill:#c8ffbf;fill-opacity:1;stroke:#2fc500;stroke-width:8.81857395;stroke-opacity:1"
       id="path2167"
       d="M 422.42166,-327.98534 C 441.37515,-327.64861 463.04931,-334.2207 464.01752,-366.07544 C 455.26337,-366.95076 429.83781,-362.24365 428.03893,-338.40351 C 426.75095,-320.91842 420.11008,-329.59576 417.38674,-342.46753 C 413.24949,-341.19205 416.26847,-342.24691 410.78696,-340.1497 C 424.34737,-318.19062 417.88425,-306.7944 420.48968,-306.99269 C 423.3997,-307.2151 422.49847,-317.36888 422.42255,-327.98713 L 422.42166,-327.98534 z " />
    <path
       style="fill:#ffbcb3;fill-opacity:1;stroke:#ec1a00;stroke-width:14.78872967;stroke-linejoin:round;stroke-opacity:1"
       id="path2165"
       d="M 351.64627,-289.46304 C 319.44097,-260.2329 333.93293,-186.75546 391.839,-167.76612 C 418.22036,-159.26005 451.2186,-161.31121 475.43459,-179.57969 C 495.30019,-194.29634 511.81335,-215.81054 508.8382,-259.39221 C 507.14934,-283.8928 470.5253,-327.88171 422.46591,-300.91618 C 409.23497,-307.67067 383.9171,-319.1959 351.6472,-289.46304 L 351.64627,-289.46304 z " />
  </g>
  <g
     id="g3216"
     transform="translate(2.5905576,187.52735)">
    <path
       style="fill:#c8ffbf;fill-opacity:1;stroke:#2fc500;stroke-width:10.75350285;stroke-opacity:1"
       id="path2183"
       d="M 400.3161,241.41357 C 423.42827,241.82418 449.85806,233.81007 451.03872,194.96593 C 440.36377,193.89854 409.35947,199.63847 407.16588,228.70949 C 405.5953,250.03108 397.49732,239.44979 394.17645,223.75377 C 389.13141,225.30911 392.81281,224.0228 386.12857,226.58017 C 402.66434,253.3574 394.78311,267.25412 397.96022,267.01232 C 401.50874,266.74112 400.40976,254.35944 400.31718,241.41139 L 400.3161,241.41357 z " />
    <path
       style="fill:url(#linearGradient3244);fill-opacity:1;stroke:url(#linearGradient3246);stroke-width:17.20561218;stroke-linejoin:round"
       id="path2181"
       d="M 314.0506,281.67363 C 276.58207,315.68077 293.44242,401.16643 360.81191,423.25915 C 391.50471,433.15534 429.89576,430.76897 458.06931,409.51491 C 481.18149,392.39317 500.39335,367.36296 496.93197,316.65885 C 494.96711,288.15419 452.35771,236.97629 396.4441,268.34873 C 381.05086,260.49037 351.59536,247.08161 314.05168,281.67363 L 314.0506,281.67363 z " />
  </g>
  <g
     id="g3223"
     transform="matrix(10.309933,0,0,-10.309933,-12.291104,2801.7566)">
    <path
       transform="matrix(0.1,0,0,-0.1,-2.086995,273.28404)"
       style="fill:#c8ffbf;fill-opacity:1;stroke:#2fc500;stroke-width:15.79699993;stroke-linejoin:round;stroke-opacity:1"
       id="path2173"
       d="M 358.12601,-52.22396 C 323.72501,-21.00096 339.20501,57.48604 401.05901,77.77004 C 429.23901,86.85604 464.48701,84.66504 490.35401,65.15104 C 511.57401,49.43104 529.21301,26.45004 526.03501,-20.10296 C 524.23101,-46.27396 485.11001,-93.26196 433.774,-64.45796 C 419.64101,-71.67296 392.59701,-83.98396 358.12701,-52.22396 L 358.12601,-52.22396 z " />
    <path
       transform="matrix(0.1,0,0,-0.1,-2.086995,273.28404)"
       style="fill:#c8ffbf;fill-opacity:1;stroke:#2fc500;stroke-width:9.87312031;stroke-opacity:1"
       id="path2175"
       d="M 437.32901,-89.18796 C 458.549,-88.81096 482.81501,-96.16896 483.899,-131.83296 C 474.09801,-132.81296 445.632,-127.54296 443.61801,-100.85196 C 442.17601,-81.27596 434.741,-90.99096 431.692,-105.40196 C 427.06001,-103.97396 430.44001,-105.15496 424.303,-102.80696 C 439.48501,-78.22196 432.24901,-65.46296 435.166,-65.68496 C 438.424,-65.93396 437.41501,-77.30196 437.33001,-89.18996 L 437.32901,-89.18796 z " />
  </g>
</svg>
